<svg width="45" height="42" viewBox="0 0 45 42" fill="none" xmlns="http://www.w3.org/2000/svg">
<path fill-rule="evenodd" clip-rule="evenodd" d="M42.375 12.826C41.317 10.325 39.803 8.079 37.875 6.151C35.947 4.223 33.701 2.709 31.2 1.651C28.611 0.555 25.861 0 23.026 0V2C25.592 2 28.08 2.503 30.421 3.493C32.684 4.45 34.716 5.82 36.461 7.565C38.206 9.31 39.576 11.343 40.533 13.605C41.523 15.947 42.026 18.434 42.026 21C42.026 23.566 41.523 26.054 40.533 28.395C39.576 30.658 38.206 32.69 36.461 34.435C34.716 36.18 32.684 37.551 30.421 38.508C25.738 40.488 20.313 40.488 15.631 38.508C13.368 37.551 11.336 36.18 9.591 34.435C7.846 32.69 6.476 30.658 5.519 28.395C4.528 26.054 4.026 23.566 4.026 21C4.026 18.831 4.407 16.724 5.116 14.707L8.367 16.816L8.884 6.858L0 11.388L3.397 13.592C2.502 15.957 2.026 18.441 2.026 21C2.026 23.835 2.581 26.585 3.677 29.175C4.734 31.676 6.249 33.921 8.177 35.849C10.105 37.778 12.351 39.292 14.852 40.349C17.441 41.445 20.191 42 23.026 42C25.861 42 28.611 41.445 31.2 40.349C33.701 39.292 35.947 37.778 37.875 35.849C39.803 33.921 41.317 31.676 42.375 29.175C43.471 26.585 44.026 23.835 44.026 21C44.026 18.165 43.471 15.415 42.375 12.826Z" fill="#EEEEEE"/>
<path d="M17.1982 19.71C17.1982 20.05 17.1349 20.3933 17.0082 20.74C16.8882 21.0867 16.7316 21.4267 16.5382 21.76C16.3516 22.0933 16.1416 22.4167 15.9082 22.73C15.6816 23.0367 15.4582 23.32 15.2382 23.58L14.7082 23.99V24.04L15.4282 23.9H17.3482V25H13.1382V24.33C13.2982 24.1633 13.4782 23.97 13.6782 23.75C13.8782 23.5233 14.0782 23.2867 14.2782 23.04C14.4849 22.7867 14.6849 22.5267 14.8782 22.26C15.0716 21.9933 15.2449 21.7267 15.3982 21.46C15.5516 21.1867 15.6716 20.9233 15.7582 20.67C15.8516 20.4167 15.8982 20.1767 15.8982 19.95C15.8982 19.6767 15.8182 19.4533 15.6582 19.28C15.5049 19.1 15.2582 19.01 14.9182 19.01C14.7049 19.01 14.4849 19.0567 14.2582 19.15C14.0382 19.2367 13.8516 19.35 13.6982 19.49L13.1782 18.57C13.4382 18.3567 13.7316 18.1867 14.0582 18.06C14.3916 17.9267 14.7816 17.86 15.2282 17.86C15.5149 17.86 15.7782 17.9 16.0182 17.98C16.2582 18.06 16.4649 18.1767 16.6382 18.33C16.8116 18.4833 16.9482 18.6767 17.0482 18.91C17.1482 19.1367 17.1982 19.4033 17.1982 19.71ZM23.6521 23.05H22.5521V25H21.3421V23.05H18.3121V22.31L21.4821 17.95H22.5521V22.01H23.6521V23.05ZM21.3421 20.48L21.4321 19.64H21.3921L21.0521 20.36L20.0121 21.71L19.5121 22.09L20.1521 22.01H21.3421V20.48ZM27.1259 17.88L28.1059 18.32L24.5359 26.4L23.5559 25.94L27.1259 17.88ZM28.9179 25L31.2079 19.61L31.6479 19.12L31.0479 19.22H28.4779V18H32.9879V18.38L30.1879 25H28.9179Z" fill="#EE1C25"/>
</svg>
