<svg width="24" height="24" viewBox="0 0 24 24" fill="none" xmlns="http://www.w3.org/2000/svg">
<path fill-rule="evenodd" clip-rule="evenodd" d="M11.9878 0.303772C8.73206 0.303772 8.32375 0.317443 7.04529 0.374861C5.76929 0.432582 4.89791 0.632481 4.13514 0.925038C3.34714 1.22762 2.67852 1.63228 2.01206 2.2903C1.3456 2.94833 0.935753 3.60848 0.629292 4.38651C0.332984 5.13962 0.130215 5.99997 0.072061 7.25982C0.0139072 8.5224 6.10352e-05 8.92524 6.10352e-05 12.1397C6.10352e-05 15.3542 0.0139072 15.7573 0.072061 17.0196C0.130215 18.2798 0.332984 19.1401 0.629292 19.8926C0.935753 20.6713 1.3456 21.3314 2.01206 21.9894C2.67852 22.6475 3.34714 23.0521 4.13514 23.3544C4.89791 23.647 5.76929 23.8472 7.04529 23.9049C8.32375 23.9623 8.73206 23.976 11.9878 23.976C15.2434 23.976 15.6518 23.9623 16.9302 23.9049C18.2062 23.8472 19.0776 23.647 19.8404 23.3544C20.6287 23.0521 21.297 22.6475 21.9634 21.9894C22.6299 21.3314 23.0398 20.6713 23.3462 19.8926C23.6425 19.1401 23.8453 18.2798 23.9034 17.0196C23.9619 15.7573 23.9754 15.3542 23.9754 12.1397C23.9754 8.92524 23.9619 8.5224 23.9034 7.25982C23.8453 5.99997 23.6425 5.13962 23.3462 4.38651C23.0398 3.60848 22.6299 2.94833 21.9634 2.2903C21.297 1.63228 20.6287 1.22762 19.8404 0.925038C19.0776 0.632481 18.2062 0.432582 16.9302 0.374861C15.6518 0.317443 15.2434 0.303772 11.9878 0.303772ZM11.9878 2.43643C15.1887 2.43643 15.5678 2.44858 16.8321 2.50539C18.0007 2.55795 18.6354 2.75086 19.0579 2.91309C19.6173 3.12757 20.0167 3.38428 20.4364 3.79835C20.8558 4.21243 21.1154 4.60676 21.333 5.15906C21.497 5.57618 21.6924 6.20291 21.7456 7.35704C21.8034 8.60504 21.8154 8.97962 21.8154 12.1397C21.8154 15.3001 21.8034 15.6747 21.7456 16.9224C21.6924 18.0765 21.497 18.7033 21.333 19.1204C21.1154 19.673 20.8558 20.0673 20.4364 20.4814C20.0167 20.8955 19.6173 21.1519 19.0579 21.3667C18.6354 21.5286 18.0007 21.7215 16.8321 21.7744C15.5681 21.8312 15.189 21.843 11.9878 21.843C8.78683 21.843 8.40775 21.8312 7.14375 21.7744C5.97483 21.7215 5.34037 21.5286 4.9176 21.3667C4.35821 21.1519 3.95883 20.8955 3.53945 20.4814C3.12006 20.0673 2.86006 19.673 2.64252 19.1204C2.47852 18.7033 2.28314 18.0765 2.22991 16.9224C2.17237 15.6747 2.16006 15.3001 2.16006 12.1397C2.16006 8.97962 2.17237 8.60504 2.22991 7.35704C2.28314 6.20291 2.47852 5.57618 2.64252 5.15906C2.86006 4.60676 3.12006 4.21243 3.53945 3.79835C3.95883 3.38428 4.35821 3.12757 4.9176 2.91309C5.34037 2.75086 5.97483 2.55795 7.14375 2.50539C8.40775 2.44858 8.78683 2.43643 11.9878 2.43643Z" fill="#808080"/>
<path fill-rule="evenodd" clip-rule="evenodd" d="M11.9877 16.0852C9.78095 16.0852 7.99203 14.3189 7.99203 12.1398C7.99203 9.96095 9.78095 8.19437 11.9877 8.19437C14.1945 8.19437 15.9837 9.96095 15.9837 12.1398C15.9837 14.3189 14.1945 16.0852 11.9877 16.0852ZM11.9877 6.06201C8.58803 6.06201 5.83203 8.78313 5.83203 12.1398C5.83203 15.4967 8.58803 18.2179 11.9877 18.2179C15.3874 18.2179 18.1437 15.4967 18.1437 12.1398C18.1437 8.78313 15.3874 6.06201 11.9877 6.06201Z" fill="#808080"/>
<path fill-rule="evenodd" clip-rule="evenodd" d="M19.8255 5.82168C19.8255 6.60609 19.1815 7.24224 18.387 7.24224C17.5925 7.24224 16.9482 6.60609 16.9482 5.82168C16.9482 5.03728 17.5925 4.40143 18.387 4.40143C19.1815 4.40143 19.8255 5.03728 19.8255 5.82168Z" fill="#808080"/>
</svg>
