<svg width="23" height="19" viewBox="0 0 23 19" fill="none" xmlns="http://www.w3.org/2000/svg">
<path fill-rule="evenodd" clip-rule="evenodd" d="M7.21626 19C15.9012 19 20.6501 11.6885 20.6501 5.35183C20.6501 5.14293 20.6501 4.93413 20.6403 4.73518C21.5607 4.05864 22.3636 3.21309 23 2.24827C22.1579 2.62618 21.2473 2.88482 20.2878 3.00419C21.2669 2.40733 22.0111 1.47225 22.3636 0.348168C21.453 0.895288 20.4444 1.29319 19.3674 1.51204C18.5057 0.576963 17.2818 0 15.9208 0C13.3163 0 11.2014 2.14879 11.2014 4.79476C11.2014 5.17277 11.2405 5.54084 11.3287 5.88901C7.4023 5.69005 3.92635 3.7801 1.596 0.875393C1.19455 1.58168 0.959557 2.40733 0.959557 3.28272C0.959557 4.94398 1.79183 6.41623 3.06471 7.27183C2.29119 7.25183 1.56662 7.03298 0.930183 6.67497V6.73455C0.930183 9.0624 2.55556 10.9921 4.71946 11.4398C4.3278 11.5493 3.90677 11.6089 3.47595 11.6089C3.17241 11.6089 2.87867 11.5791 2.58493 11.5194C3.1822 13.4293 4.92507 14.812 6.99106 14.8518C5.37548 16.1351 3.33887 16.901 1.12601 16.901C0.744146 16.901 0.372073 16.8812 0 16.8314C2.06599 18.2042 4.553 19 7.21626 19Z" fill="#808080"/>
</svg>
